<mxfile host="app.diagrams.net" modified="2020-08-22T17:07:29.118Z" agent="5.0 (Macintosh; Intel Mac OS X 10_15_6) AppleWebKit/537.36 (KHTML, like Gecko) Chrome/84.0.4147.135 Safari/537.36" etag="kti-ztJnqgQYGgaJ2NTz" version="13.6.3" type="github">
  <diagram id="vslZhce6Klsg4J_S0lZ4" name="Page-1">
    <mxGraphModel dx="1298" dy="762" grid="1" gridSize="10" guides="1" tooltips="1" connect="1" arrows="1" fold="1" page="1" pageScale="1" pageWidth="827" pageHeight="1169" math="0" shadow="0">
      <root>
        <mxCell id="0" />
        <mxCell id="1" parent="0" />
        <mxCell id="vvAS3Bj70sWV_6ggNeVX-18" value="" style="rounded=0;whiteSpace=wrap;html=1;sketch=0;" vertex="1" parent="1">
          <mxGeometry x="159" y="380" width="610" height="90" as="geometry" />
        </mxCell>
        <mxCell id="LHr2sBKM0kDGiqUmLX_8-3" value="" style="rounded=0;whiteSpace=wrap;html=1;sketch=0;" parent="1" vertex="1">
          <mxGeometry x="159" y="70" width="610" height="90" as="geometry" />
        </mxCell>
        <mxCell id="vvAS3Bj70sWV_6ggNeVX-1" value="" style="rounded=0;whiteSpace=wrap;html=1;sketch=0;" vertex="1" parent="1">
          <mxGeometry x="159" y="230" width="610" height="90" as="geometry" />
        </mxCell>
        <mxCell id="vvAS3Bj70sWV_6ggNeVX-9" value="&lt;font style=&quot;font-size: 20px&quot;&gt;用户态&lt;/font&gt;" style="text;strokeColor=none;fillColor=none;html=1;fontSize=24;fontStyle=1;verticalAlign=middle;align=center;rounded=0;sketch=0;" vertex="1" parent="1">
          <mxGeometry x="50" y="95" width="100" height="40" as="geometry" />
        </mxCell>
        <mxCell id="vvAS3Bj70sWV_6ggNeVX-10" value="&lt;font style=&quot;font-size: 20px&quot;&gt;内核态&lt;/font&gt;" style="text;strokeColor=none;fillColor=none;html=1;fontSize=24;fontStyle=1;verticalAlign=middle;align=center;rounded=0;sketch=0;" vertex="1" parent="1">
          <mxGeometry x="50" y="255" width="100" height="40" as="geometry" />
        </mxCell>
        <mxCell id="vvAS3Bj70sWV_6ggNeVX-12" value="&lt;font style=&quot;font-size: 20px&quot;&gt;磁&amp;nbsp; &amp;nbsp;盘&lt;/font&gt;" style="text;strokeColor=none;fillColor=none;html=1;fontSize=24;fontStyle=1;verticalAlign=middle;align=center;rounded=0;sketch=0;" vertex="1" parent="1">
          <mxGeometry x="50" y="405" width="100" height="40" as="geometry" />
        </mxCell>
        <mxCell id="vvAS3Bj70sWV_6ggNeVX-20" style="edgeStyle=orthogonalEdgeStyle;curved=0;rounded=1;sketch=0;orthogonalLoop=1;jettySize=auto;html=1;exitX=0.5;exitY=1;exitDx=0;exitDy=0;entryX=0.5;entryY=0;entryDx=0;entryDy=0;" edge="1" parent="1" source="vvAS3Bj70sWV_6ggNeVX-14" target="vvAS3Bj70sWV_6ggNeVX-15">
          <mxGeometry relative="1" as="geometry" />
        </mxCell>
        <mxCell id="vvAS3Bj70sWV_6ggNeVX-21" value="&lt;font style=&quot;font-size: 15px&quot;&gt;copy&lt;/font&gt;" style="edgeLabel;html=1;align=center;verticalAlign=middle;resizable=0;points=[];" vertex="1" connectable="0" parent="vvAS3Bj70sWV_6ggNeVX-20">
          <mxGeometry x="-0.1143" y="2" relative="1" as="geometry">
            <mxPoint y="1" as="offset" />
          </mxGeometry>
        </mxCell>
        <mxCell id="vvAS3Bj70sWV_6ggNeVX-14" value="Hello Mmap" style="rounded=1;whiteSpace=wrap;html=1;sketch=0;fillColor=#d5e8d4;strokeColor=#82b366;" vertex="1" parent="1">
          <mxGeometry x="414" y="87.5" width="100" height="55" as="geometry" />
        </mxCell>
        <mxCell id="vvAS3Bj70sWV_6ggNeVX-22" style="edgeStyle=orthogonalEdgeStyle;curved=0;rounded=1;sketch=0;orthogonalLoop=1;jettySize=auto;html=1;exitX=0.5;exitY=1;exitDx=0;exitDy=0;entryX=0.5;entryY=0;entryDx=0;entryDy=0;" edge="1" parent="1" source="vvAS3Bj70sWV_6ggNeVX-15" target="vvAS3Bj70sWV_6ggNeVX-19">
          <mxGeometry relative="1" as="geometry" />
        </mxCell>
        <mxCell id="vvAS3Bj70sWV_6ggNeVX-23" value="&lt;font style=&quot;font-size: 14px&quot;&gt;系统调度&lt;/font&gt;" style="edgeLabel;html=1;align=center;verticalAlign=middle;resizable=0;points=[];" vertex="1" connectable="0" parent="vvAS3Bj70sWV_6ggNeVX-22">
          <mxGeometry x="-0.2947" y="2" relative="1" as="geometry">
            <mxPoint x="-2" y="13.5" as="offset" />
          </mxGeometry>
        </mxCell>
        <mxCell id="vvAS3Bj70sWV_6ggNeVX-15" value="Hello Mmap" style="rounded=1;whiteSpace=wrap;html=1;sketch=0;fillColor=#fff2cc;strokeColor=#d6b656;" vertex="1" parent="1">
          <mxGeometry x="414" y="247.5" width="100" height="55" as="geometry" />
        </mxCell>
        <mxCell id="vvAS3Bj70sWV_6ggNeVX-19" value="Hello Mmap" style="rounded=1;whiteSpace=wrap;html=1;sketch=0;fillColor=#CCCCCC;" vertex="1" parent="1">
          <mxGeometry x="414" y="397.5" width="100" height="55" as="geometry" />
        </mxCell>
      </root>
    </mxGraphModel>
  </diagram>
</mxfile>
